<?xml version="1.0" encoding="UTF-8" standalone="no"?>
<!-- Created with Inkscape (http://www.inkscape.org/) -->

<svg
   version="1.1"
   id="svg1"
   width="550.85809"
   height="273.52768"
   viewBox="0 0 550.8581 273.52768"
   xmlns="http://www.w3.org/2000/svg"
   xmlns:svg="http://www.w3.org/2000/svg"
   xmlns:rdf="http://www.w3.org/1999/02/22-rdf-syntax-ns#"
   xmlns:cc="http://creativecommons.org/ns#"
   xmlns:dc="http://purl.org/dc/elements/1.1/">
  <defs
     id="defs1">
    <radialGradient
       fx="0"
       fy="0"
       cx="0"
       cy="0"
       r="1"
       gradientUnits="userSpaceOnUse"
       gradientTransform="matrix(262.66699,557.33459,-557.33459,262.66699,329.42643,332)"
       spreadMethod="pad"
       id="radialGradient3">
      <stop
         style="stop-opacity:1;stop-color:#ffffff"
         offset="0"
         id="stop1" />
      <stop
         style="stop-opacity:1;stop-color:#bdbfc1"
         offset="0.962153"
         id="stop2" />
      <stop
         style="stop-opacity:1;stop-color:#bdbfc1"
         offset="1"
         id="stop3" />
    </radialGradient>
    <clipPath
       clipPathUnits="userSpaceOnUse"
       id="clipPath3">
      <path
         d="M 0,0 H 666.66667 V 666.66667 H 0 Z"
         id="path3" />
    </clipPath>
    <clipPath
       clipPathUnits="userSpaceOnUse"
       id="clipPath5">
      <path
         d="M -75.010299,7.7257002 H 2.0250001e-4 V -7.7253002 H -75.010299 Z"
         id="path5" />
    </clipPath>
    <clipPath
       clipPathUnits="userSpaceOnUse"
       id="clipPath7">
      <path
         d="M -75.010899,7.7258977 H 1.025e-4 V -7.7261027 H -75.010899 Z"
         id="path7" />
    </clipPath>
    <clipPath
       clipPathUnits="userSpaceOnUse"
       id="clipPath32">
      <path
         d="m -10.107798,10.2639 c -4.969,-1.1729998 -3.818,-6.8679999 -0.073,-6.5619999 v 0 c 0.037,0.003 0.074,0.006 0.111,0.009 v 0 c 2.3650003,0.181 4.6920004,-0.67 6.4580004,-2.2570001 v 0 c 3.4350001,-3.087 7.0190002,-0.241 5.7350002,3.2740001 v 0 C 0.89220252,8.1029002 -3.3907976,10.5409 -7.6747977,10.5399 v 0 c -0.818,0 -1.636,-0.088 -2.4330003,-0.276"
         id="path32" />
    </clipPath>
  </defs>
  <metadata
     id="metadata1">
    <rdf:RDF>
      <cc:Work
         rdf:about="">
        <dc:title>273799-P5XKI1-666 (1)</dc:title>
        <dc:date>D:20180321090349+02'00'</dc:date>
      </cc:Work>
    </rdf:RDF>
  </metadata>
  <g
     id="layer-MC0"
     style="display:none"
     transform="translate(-60.998134,-157.05435)">
    <path
       d="M 666.66667,666.66667 H 0 V 0 h 666.66667 z"
       style="fill:url(#radialGradient3);stroke:none"
       opacity="0.199997"
       clip-path="url(#clipPath3)"
       id="path4" />
  </g>
  <g
     id="layer-MC1"
     transform="translate(-60.998134,-157.05435)">
    <path
       d="m 0,0 c 0,-4.267 -16.792,-7.726 -37.505,-7.726 -20.714,0 -37.505,3.459 -37.505,7.726 0,4.267 16.791,7.726 37.505,7.726 C -16.792,7.726 0,4.267 0,0"
       style="fill:#b8b8b8;fill-opacity:1;fill-rule:nonzero;stroke:none"
       transform="matrix(1.3333333,0,0,-1.3333333,189.70773,390.9636)"
       clip-path="url(#clipPath5)"
       opacity="0.419998"
       id="path6" />
    <path
       d="m 0,0 c 0,-4.267 -16.792,-7.726 -37.505,-7.726 -20.714,0 -37.506,3.459 -37.506,7.726 0,4.267 16.792,7.726 37.506,7.726 C -16.792,7.726 0,4.267 0,0"
       style="fill:#b8b8b8;fill-opacity:1;fill-rule:nonzero;stroke:none"
       transform="matrix(1.3333333,0,0,-1.3333333,602.55853,385.67053)"
       clip-path="url(#clipPath7)"
       opacity="0.419998"
       id="path8" />
    <path
       id="path9"
       d="m 228.14844,259.34375 -48.65625,66.73438 1.85938,20.6875 h 57.76562 v 20.54687 h 20.07812 v -20.54687 h 12.67188 V 327 H 259.19531 V 259.34375 Z M 202.50781,327 239.11719,276.95313 V 327 Z m 101.9375,-21.625 c 0,-39.07812 54.375,-38.60937 54.375,0 v 15.60938 c 0,39.21875 -54.375,39.21875 -54.375,0 z m -20.21875,15.60938 c 0,64.54687 94.82813,64.40624 94.82813,0 V 305.375 c 0,-64.40625 -94.82813,-64.5625 -94.82813,0 z m 156.29688,-61.64063 -48.65626,66.73438 1.85938,20.6875 h 57.76562 v 20.54687 h 20.07812 v -20.54687 h 12.67188 V 327 H 471.5703 V 259.34375 Z M 414.88281,327 451.49218,276.95313 V 327 Z m 0,0"
       style="fill:#df6d09;fill-opacity:1;fill-rule:nonzero;stroke:none;stroke-width:1.33333"
       aria-label="404" />
    <g
       id="g9"
       aria-label="OOPS ... &#10;PAGE NOT FOUND"
       transform="matrix(1.3333333,0,0,1.3333333,283.0508,220.99027)">
      <path
         id="path10"
         d="m 14.390611,-3.2446531 c 1.294922,-1.3125 1.945312,-3.0351563 1.945312,-5.1679688 0,-2.1328121 -0.644531,-3.8466801 -1.933593,-5.1445311 -1.283203,-1.303711 -2.90625,-1.957031 -4.8750003,-1.957031 -1.9628906,0 -3.5917969,0.65332 -4.8867188,1.957031 -1.2890625,1.297851 -1.9335937,3.011719 -1.9335937,5.1445311 0,2.1328125 0.6445312,3.8554688 1.9335937,5.1679688 1.2949219,1.3066406 2.9208985,1.9570312 4.875,1.9570312 1.9599611,0 3.5859371,-0.6503906 4.8750001,-1.9570312 z M 3.4452984,-2.2485594 c -1.649414,-1.6230469 -2.47265621,-3.6796875 -2.47265621,-6.1640625 0,-2.4843751 0.82324221,-4.5351561 2.47265621,-6.1523441 1.6552735,-1.617187 3.6914063,-2.425781 6.1054688,-2.425781 2.4140628,0 4.4414058,0.808594 6.0820308,2.425781 1.640625,1.617188 2.460938,3.667969 2.460938,6.1523441 0,2.484375 -0.820313,4.5410156 -2.460938,6.1640625 -1.640625,1.61718752 -3.667968,2.42578127 -6.0820308,2.42578127 -2.4140625,0 -4.4501953,-0.80859375 -6.1054688,-2.42578127 z M 33.436509,-3.2446531 c 1.294922,-1.3125 1.945313,-3.0351563 1.945313,-5.1679688 0,-2.1328121 -0.644531,-3.8466801 -1.933594,-5.1445311 -1.283203,-1.303711 -2.90625,-1.957031 -4.875,-1.957031 -1.96289,0 -3.591797,0.65332 -4.886719,1.957031 -1.289062,1.297851 -1.933593,3.011719 -1.933593,5.1445311 0,2.1328125 0.644531,3.8554688 1.933593,5.1679688 1.294922,1.3066406 2.920899,1.9570312 4.875,1.9570312 1.959961,0 3.585938,-0.6503906 4.875,-1.9570312 z m -10.945312,0.9960937 c -1.649414,-1.6230469 -2.472656,-3.6796875 -2.472656,-6.1640625 0,-2.4843751 0.823242,-4.5351561 2.472656,-6.1523441 1.655273,-1.617187 3.691406,-2.425781 6.105469,-2.425781 2.414062,0 4.441406,0.808594 6.082031,2.425781 1.640625,1.617188 2.460937,3.667969 2.460937,6.1523441 0,2.484375 -0.820312,4.5410156 -2.460937,6.1640625 -1.640625,1.61718752 -3.667969,2.42578127 -6.082031,2.42578127 -2.414063,0 -4.450196,-0.80859375 -6.105469,-2.42578127 z M 49.356431,-15.467309 c 0.975586,0.899414 1.464844,2.083007 1.464844,3.550781 0,1.461914 -0.486328,2.642578 -1.453125,3.5390624 -0.960938,0.890625 -2.396484,1.3359375 -4.300781,1.3359375 H 41.633775 V 0.00144062 H 39.922838 V -16.826684 h 5.144531 c 1.889648,0 3.319336,0.454101 4.289062,1.359375 z m -7.722656,7.0312496 h 3.433594 c 2.686523,0 4.03125,-1.1630859 4.03125,-3.4921876 0,-2.334961 -1.344727,-3.503906 -4.03125,-3.503906 h -3.433594 z m 13.212891,-3.9492186 c 0,0.665039 0.175781,1.207031 0.527343,1.628906 0.351563,0.421875 0.799805,0.735352 1.347657,0.9375001 0.553711,0.2050781 1.163086,0.3808594 1.828125,0.5273438 0.670898,0.149414 1.338867,0.3134765 2.003906,0.4921875 0.662109,0.1816406 1.271484,0.4101562 1.828125,0.6914062 0.553711,0.28125 1.001953,0.7148438 1.347656,1.3007813 0.351563,0.5859375 0.527344,1.3125 0.527344,2.1796875 0,1.2832031 -0.480469,2.4023437 -1.441406,3.3632812 -0.955079,0.96093752 -2.267579,1.44140627 -3.9375,1.44140627 -1.664063,0 -3.017579,-0.375 -4.054688,-1.125 C 53.783189,-1.6977781 53.264634,-2.7055906 53.264634,-3.9712156 h 1.804688 c 0.06152,0.7822265 0.392578,1.4296875 0.996094,1.9453125 0.600586,0.5097656 1.5,0.7617187 2.695312,0.7617187 1.195313,0 2.144531,-0.3076172 2.847656,-0.9257812 0.708985,-0.6152344 1.066407,-1.3857422 1.066407,-2.3085938 0,-0.9199219 -0.325196,-1.6113281 -0.972657,-2.0742187 -0.65039,-0.459961 -1.435547,-0.7792969 -2.355468,-0.9609375 -0.922852,-0.178711 -1.845704,-0.3867188 -2.765625,-0.6210938 -0.914063,-0.234375 -1.696289,-0.6914062 -2.34375,-1.3710937 -0.650391,-0.6855469 -0.972657,-1.6787109 -0.972657,-2.9765629 0,-1.303711 0.480469,-2.378906 1.441407,-3.222656 0.966796,-0.84375 2.24414,-1.265625 3.832031,-1.265625 1.584961,0 2.830078,0.369141 3.738281,1.101563 0.914063,0.726562 1.467774,1.699218 1.664063,2.917968 h -1.921875 c -0.06445,-0.679687 -0.407227,-1.277343 -1.03125,-1.792968 -0.618164,-0.515625 -1.461914,-0.773438 -2.53125,-0.773438 -1.072266,0 -1.942383,0.269531 -2.613282,0.808594 -0.665039,0.539062 -0.996093,1.321289 -0.996093,2.34375 z m 21.685546,12.03515612 c -0.234375,0.234375 -0.515625,0.3515625 -0.84375,0.3515625 -0.322265,0 -0.597656,-0.1171875 -0.832031,-0.3515625 -0.234375,-0.234375 -0.351562,-0.515625 -0.351562,-0.84375002 0,-0.328125 0.117187,-0.609375 0.351562,-0.84375 0.234375,-0.234375 0.509766,-0.3515625 0.832031,-0.3515625 0.328125,0 0.609375,0.1171875 0.84375,0.3515625 0.240235,0.234375 0.363282,0.515625 0.363282,0.84375 0,0.32812502 -0.123047,0.60937502 -0.363282,0.84375002 z m 5.317383,0 c -0.234375,0.234375 -0.515625,0.3515625 -0.84375,0.3515625 -0.322265,0 -0.597656,-0.1171875 -0.832031,-0.3515625 -0.234375,-0.234375 -0.351562,-0.515625 -0.351562,-0.84375002 0,-0.328125 0.117187,-0.609375 0.351562,-0.84375 0.234375,-0.234375 0.509766,-0.3515625 0.832031,-0.3515625 0.328125,0 0.609375,0.1171875 0.84375,0.3515625 0.240235,0.234375 0.363282,0.515625 0.363282,0.84375 0,0.32812502 -0.123047,0.60937502 -0.363282,0.84375002 z m 5.317383,0 c -0.234375,0.234375 -0.515625,0.3515625 -0.84375,0.3515625 -0.322266,0 -0.597656,-0.1171875 -0.832031,-0.3515625 -0.234375,-0.234375 -0.351563,-0.515625 -0.351563,-0.84375002 0,-0.328125 0.117188,-0.609375 0.351563,-0.84375 0.234375,-0.234375 0.509765,-0.3515625 0.832031,-0.3515625 0.328125,0 0.609375,0.1171875 0.84375,0.3515625 0.240234,0.234375 0.363281,0.515625 0.363281,0.84375 0,0.32812502 -0.123047,0.60937502 -0.363281,0.84375002 z M -52.754897,140.04929 c 0.975586,0.89942 1.464844,2.08301 1.464844,3.55078 0,1.46192 -0.486328,2.64258 -1.453125,3.53907 -0.960938,0.89062 -2.396484,1.33593 -4.300781,1.33593 h -3.433594 v 7.04297 h -1.710938 v -16.82812 h 5.144532 c 1.889648,0 3.319336,0.4541 4.289062,1.35937 z m -7.722656,7.03125 h 3.433594 c 2.686523,0 4.03125,-1.16308 4.03125,-3.49219 0,-2.33496 -1.344727,-3.5039 -4.03125,-3.5039 h -3.433594 z m 23.876953,8.4375 -1.417969,-3.92578 h -7.851562 l -1.441406,3.92578 h -1.710938 l 6.199219,-16.82812 h 1.757812 l 6.164063,16.82812 z m -8.789062,-5.29687 h 6.855468 l -3.410156,-9.41016 z m 15.228515,3.02343 c -1.649414,-1.60839 -2.472656,-3.65625 -2.472656,-6.14062 0,-2.48438 0.823242,-4.53516 2.472656,-6.15234 1.655274,-1.61719 3.685547,-2.42579 6.09375,-2.42579 1.716797,0 3.249024,0.39258 4.59375,1.17188 1.341797,0.77344 2.355469,1.91016 3.035156,3.41016 h -2.074218 c -0.515625,-0.99024 -1.262696,-1.75782 -2.238282,-2.29688 -0.978515,-0.53906 -2.083007,-0.80859 -3.316406,-0.80859 -1.96875,0 -3.597656,0.65332 -4.886719,1.95703 -1.283203,1.29785 -1.921875,3.01172 -1.921875,5.14453 0,2.13281 0.638672,3.85254 1.921875,5.15625 1.289063,1.29785 2.900391,1.94531 4.839844,1.94531 1.945313,0 3.518555,-0.56836 4.722656,-1.71094 1.201172,-1.13964 1.892579,-2.69531 2.074219,-4.66406 h -7.558594 v -1.35937 h 9.339844 v 1.35937 c -0.228515,2.34375 -1.136719,4.23633 -2.730469,5.67188 -1.59375,1.43847 -3.5625,2.15625 -5.90625,2.15625 -2.33789,0 -4.333007,-0.80274 -5.988281,-2.41407 z m 25.9716798,-14.55468 v 1.39453 h -6.8554688 v 6.29297 h 6.1171876 v 1.35937 h -6.1171876 v 6.41016 h 6.8554688 v 1.37109 h -8.5664058 v -16.82812 z m 0,0"
         style="fill:#666666;fill-opacity:1;fill-rule:nonzero;stroke:none" />
      <path
         id="path11"
         d="m 17.581041,138.35007 h 4.171875 v 17.16797 h -4.171875 l -6.972657,-10.80469 v 10.80469 H 6.4365094 v -17.16797 h 4.1718746 l 6.972657,10.80469 z m 18.893554,12.15235 c 0.820313,-0.89649 1.230469,-2.0918 1.230469,-3.58594 0,-1.5 -0.410156,-2.69531 -1.230469,-3.58594 -0.820312,-0.89648 -1.918945,-1.34765 -3.292968,-1.34765 -1.376954,0 -2.472657,0.45117 -3.292969,1.34765 -0.820313,0.89063 -1.230469,2.08594 -1.230469,3.58594 0,1.49414 0.410156,2.68945 1.230469,3.58594 0.820312,0.89062 1.916015,1.33593 3.292969,1.33593 1.374023,0 2.472656,-0.44531 3.292968,-1.33593 z m -9.515625,2.70703 c -1.696289,-1.66406 -2.542968,-3.76172 -2.542968,-6.29297 0,-2.53711 0.846679,-4.63184 2.542968,-6.28125 1.702149,-1.65527 3.785157,-2.48438 6.246094,-2.48438 2.460938,0 4.529297,0.82911 6.210938,2.48438 1.6875,1.64941 2.53125,3.74414 2.53125,6.28125 0,2.53125 -0.84961,4.62891 -2.542969,6.29297 -1.6875,1.6582 -3.758789,2.48437 -6.210938,2.48437 -2.455078,0 -4.532226,-0.82617 -6.234375,-2.48437 z m 16.497071,-11.63672 v -3.17578 h 13.511718 v 3.17578 h -4.675781 v 13.94531 h -4.171875 v -13.94531 z m 23.317382,13.94531 v -17.12109 h 11.144532 v 3.17578 h -6.972657 v 3.67969 h 5.214844 v 3.16406 h -5.214844 v 7.10156 z m 25.083985,-5.01562 c 0.820312,-0.89649 1.230469,-2.0918 1.230469,-3.58594 0,-1.5 -0.410157,-2.69531 -1.230469,-3.58594 -0.820313,-0.89648 -1.918946,-1.34765 -3.292969,-1.34765 -1.376953,0 -2.472656,0.45117 -3.292969,1.34765 -0.820312,0.89063 -1.230468,2.08594 -1.230468,3.58594 0,1.49414 0.410156,2.68945 1.230468,3.58594 0.820313,0.89062 1.916016,1.33593 3.292969,1.33593 1.374023,0 2.472656,-0.44531 3.292969,-1.33593 z m -9.515625,2.70703 c -1.696289,-1.66406 -2.542969,-3.76172 -2.542969,-6.29297 0,-2.53711 0.84668,-4.63184 2.542969,-6.28125 1.702148,-1.65527 3.785156,-2.48438 6.246094,-2.48438 2.460937,0 4.529296,0.82911 6.210937,2.48438 1.6875,1.64941 2.53125,3.74414 2.53125,6.28125 0,2.53125 -0.849609,4.62891 -2.542969,6.29297 -1.6875,1.6582 -3.758789,2.48437 -6.210937,2.48437 -2.455078,0 -4.532227,-0.82617 -6.234375,-2.48437 z m 17.601562,-4.59375 v -10.21875 h 4.171875 v 10.21875 c 0,1.02539 0.24902,1.81347 0.75,2.36719 0.50684,0.55664 1.24512,0.83203 2.21484,0.83203 0.97559,0 1.72559,-0.27539 2.25,-0.83203 0.52149,-0.55372 0.78516,-1.3418 0.78516,-2.36719 v -10.21875 h 4.16016 v 10.21875 c 0,1.51758 -0.35743,2.82422 -1.06641,3.92578 -0.70312,1.0957 -1.59375,1.89551 -2.67187,2.40234 -1.07813,0.50098 -2.25586,0.75 -3.52735,0.75 -1.98633,0 -3.66211,-0.61523 -5.02734,-1.85156 -1.35938,-1.24219 -2.039065,-2.98242 -2.039065,-5.22656 z m 29.041995,-10.26563 h 4.17187 v 17.16797 h -4.17187 l -6.97266,-10.80469 v 10.80469 h -4.17187 v -17.16797 h 4.17187 l 6.97266,10.80469 z m 12,13.99219 h 1.85156 c 1.59375,0 2.8418,-0.4834 3.75,-1.45312 0.91406,-0.97559 1.37109,-2.28516 1.37109,-3.92579 0,-1.64648 -0.45703,-2.95605 -1.37109,-3.92578 -0.9082,-0.97558 -2.15625,-1.46484 -3.75,-1.46484 h -1.85156 z m 1.85156,-13.94531 c 2.7334,0 4.97461,0.79394 6.72656,2.3789 1.75781,1.5879 2.63672,3.64454 2.63672,6.17579 0,2.52539 -0.87891,4.58203 -2.63672,6.17578 -1.75195,1.59375 -3.99316,2.39062 -6.72656,2.39062 h -6.02344 v -17.12109 z m 0,0"
         style="fill:#666666;fill-opacity:1;fill-rule:nonzero;stroke:none" />
    </g>
    <path
       id="path12"
       d="m 66.686133,318.9916 c 0,0 -3.941333,-2.436 -4.94,0.808 -0.997333,3.24533 -0.997333,7.98667 0,8.36133 0.998667,0.37467 6.738667,0 6.738667,0 0,0 2.017333,-7.23333 -1.798667,-9.16933"
       style="fill:#ff2323;fill-opacity:1;fill-rule:nonzero;stroke:none;stroke-width:1.33333" />
    <path
       id="path13"
       d="m 164.2428,320.91347 c 0,0 -8.85867,-6.23867 -11.00133,3.76267 0,0 2.07466,5.55866 3.13066,15.72 3.69334,0.75333 7.32934,1.628 10.884,2.6 -0.001,-9.40667 -0.73733,-18.004 -3.01333,-22.08267"
       style="fill:#f07d0c;fill-opacity:1;fill-rule:nonzero;stroke:none;stroke-width:1.33333" />
    <path
       id="path14"
       d="m 170.24413,382.40627 -5.42933,-2.39467 c 0,0 2.44266,-19.85333 2.44133,-37.016 -3.55467,-0.972 -7.19067,-1.84533 -10.884,-2.6 0.92267,8.87867 1.06667,21.26934 -1.63067,36.54934 0,0 -3.48266,9.35066 0.36667,13.24133 3.848,3.88933 7.27733,2.54267 12.136,4.488 4.85733,1.94533 13.00133,2.39333 16.288,-3.14133 3.28667,-5.53734 -3.42933,-14.96267 -13.288,-9.12667"
       style="fill:#fb8f25;fill-opacity:1;fill-rule:nonzero;stroke:none;stroke-width:1.33333" />
    <path
       id="path15"
       d="m 110.52013,314.60547 c 0,0 -8.86,-6.55067 -11.001333,3.95067 0,0 2.697333,7.60533 3.504003,21.31333 3.44933,-0.78533 6.95866,-1.384 10.51066,-1.8 0.012,-9.984 -0.716,-19.14133 -3.01333,-23.464"
       style="fill:#f07d0c;fill-opacity:1;fill-rule:nonzero;stroke:none;stroke-width:1.33333" />
    <path
       id="path16"
       d="m 116.5208,379.16933 -5.42933,-2.51333 c 0,0 2.41866,-20.63067 2.44133,-38.58667 -3.552,0.416 -7.06133,1.016 -10.50933,1.8 0.51733,8.80267 0.25733,20.11333 -2.00534,33.56667 0,0 -3.48133,9.81733 0.36667,13.90266 3.848,4.084 7.27733,2.67067 12.136,4.712 4.85733,2.04267 13.00133,2.51334 16.288,-3.29866 3.28667,-5.812 -3.42933,-15.70934 -13.288,-9.58267"
       style="fill:#fb8f25;fill-opacity:1;fill-rule:nonzero;stroke:none;stroke-width:1.33333" />
    <path
       id="path17"
       d="m 149.71613,215.36 c 3.744,-6.73867 5.24133,-14.97333 2.24667,-22.46 -0.22134,-0.48667 -0.468,-0.93333 -0.73467,-1.34933 -15.096,5.22666 -37.468,19.164 -48.56533,56.27733 18.87866,-4.86533 36.05333,-14.59333 47.05333,-32.468"
       style="fill:#ff9539;fill-opacity:1;fill-rule:nonzero;stroke:none;stroke-width:1.33333" />
    <path
       id="path18"
       d="m 172.54427,182.5508 c 0.012,0.90533 0.2,1.704 0.2,1.704 0,0 -0.056,-0.652 -0.2,-1.704"
       style="fill:#fb8f25;fill-opacity:1;fill-rule:nonzero;stroke:none;stroke-width:1.33333" />
    <path
       id="path19"
       d="m 178.81707,194.09173 c 0,0 8.716,0.71067 7.644,-2.992 -1.072,-3.70267 -4.50133,-2.69333 -4.50133,-2.69333 0,0 9.00133,-7.18134 3.644,-10.32267 -5.35867,-3.14267 -8.78667,6.62 -8.78667,6.62 0,0 0.428,-4.488 -2.35867,-4.71333 -1.612,-0.12934 -1.92933,1.31733 -1.91466,2.56 0.144,1.052 0.2,1.704 0.2,1.704 0,0 -0.188,-0.79867 -0.2,-1.704 -0.62267,-4.56534 -2.89067,-16.65067 -9.33734,-15.464 -7.92933,1.45866 3.75067,18.62666 3.75067,18.62666 0,0 -2.35733,-1.90666 -3.21467,0.11334 -0.85733,2.01866 2.78667,2.58 2.78667,2.58 0,0 -6.38,0.0547 -15.3,3.144 0.26533,0.416 0.512,0.86266 0.73333,1.34933 2.99467,7.48667 1.49734,15.72133 -2.24666,22.46 -10.99867,17.87467 -28.17467,27.60267 -47.05333,32.468 -1.95334,6.53333 -3.562671,13.772 -4.716005,21.82 0,0 -5.610666,45.80666 -4.286666,48.02666 2.718666,4.55467 33.354661,10.19067 67.570661,8.928 3.18667,-0.11733 5.99067,-2.248 7.07734,-5.388 l 16.336,-42.29733 c 5.43733,-14.08 8.49466,-29.068 8.768,-44.252 0.29333,-16.26533 -2.45067,-34.14 -14.59467,-40.57333"
       style="fill:#fb8f25;fill-opacity:1;fill-rule:nonzero;stroke:none;stroke-width:1.33333" />
    <path
       id="path20"
       d="m 121.11653,250.1048 c -1.34133,-2.65867 -4.37867,-4.91067 -11.072,-3.92933 -9.45467,1.38533 -17.143999,14.35333 -21.238666,22.89066 12.573336,-3.87066 24.159996,-9.88933 32.310666,-18.96133"
       style="fill:#fb8f25;fill-opacity:1;fill-rule:nonzero;stroke:none;stroke-width:1.33333" />
    <path
       id="path21"
       d="m 92.0684,277.5 c 5.250667,-9.188 15.67867,-16.07333 27.24933,-16.12 0.93867,-0.84133 1.95467,-2.284 2.67067,-4.784 0,0 0.636,-3.50133 -0.872,-6.49067 -8.15067,9.07067 -19.73733,15.08934 -32.310667,18.96 -2.062666,4.3 -3.216,7.48134 -3.216,7.48134 0,0 -5.118666,-0.596 -6.255999,5.95466 0,0 -0.569334,3.276 1.422666,4.468 0,0 -19.621333,28.58534 -15.355999,39.9 0,0 -0.758667,3.47334 2.558666,4.66534 0,0 2.18,4.764 5.402667,3.076 0,0 -2.653333,6.55066 0.758666,7.84133 3.413334,1.29067 7.204,0.79467 8.530667,-4.764 0.337333,-1.412 1.025333,-6.23067 2.289333,-12.81467 -3.001333,-15.9 -1.86,-32.56933 7.128,-47.37333"
       style="fill:#fb8f25;fill-opacity:1;fill-rule:nonzero;stroke:none;stroke-width:1.33333" />
    <path
       id="path22"
       d="m 92.0684,277.5 c -8.988,14.804 -10.129333,31.47333 -7.128,47.37333 3.713333,-19.324 12.414667,-53.88133 31.92933,-62.32133 0,0 1.14934,-0.008 2.448,-1.172 -11.57066,0.0467 -21.998663,6.932 -27.24933,16.12"
       style="fill:#f07d0c;fill-opacity:1;fill-rule:nonzero;stroke:none;stroke-width:1.33333" />
    <path
       id="path23"
       d="m 101.97,250.19533 c 0,0 11.884,-9.236 19.14667,-0.0907 0,0 -4.84667,-6.344 -19.14667,0.0907"
       style="fill:#f07d0c;fill-opacity:1;fill-rule:nonzero;stroke:none;stroke-width:1.33333" />
    <path
       id="path24"
       d="m 163.20707,167.08653 c 0,0 7.472,-3.13867 9.43733,16.624 0,0 -1.23733,-4.18133 1.81467,-3.72 3.052,0.46267 2.35733,4.71333 2.35733,4.71333 0,0 2.112,-9.06933 8.14,-6.94133 6.03067,2.12933 -1.07466,9.24 -2.996,10.644 0,0 4.15734,-0.732 4.58,3.144 0,0 -2.33733,-3.79733 -5.66,-2.11333 0,0 7.52267,-9.08267 3.36934,-9.92 -4.15334,-0.83734 -7.628,7.112 -7.628,7.112 0,0 -0.59734,-5.45334 -2.38667,-4.67867 -1.788,0.77467 -1.49067,4.53867 -1.49067,4.53867 0,0 -3.48666,-18.684 -9.53733,-19.40267"
       style="fill:#ff9d50;fill-opacity:1;fill-rule:nonzero;stroke:none;stroke-width:1.33333" />
    <path
       id="path25"
       d="m 90.1784,326.78773 c -3.604,-4.24667 -8.893333,-3.86533 -8.893333,-3.86533 -2.058667,5.74133 -1.685333,10.54133 -1.685333,10.54133 0,0 -20.4,38.18267 -9.92,32.568 7.993333,-4.28133 17.030666,-1.272 20.873333,0.39733 0.6,0.26267 1.245333,0.0867 1.649333,-0.34 -6.909333,-12.32533 -8.889333,-27.04 -2.024,-39.30133"
       style="fill:#ff2323;fill-opacity:1;fill-rule:nonzero;stroke:none;stroke-width:1.33333" />
    <path
       id="path26"
       d="m 93.450533,337.39453 c -0.06267,-5.148 -1.453333,-8.464 -3.272,-10.60667 -6.865333,12.26134 -4.885333,26.976 2.024,39.30134 0.221333,-0.23467 0.374667,-0.54534 0.398667,-0.904 0.318666,-4.612 0.993333,-15.98 0.849333,-27.79067"
       style="fill:#ff3c3c;fill-opacity:1;fill-rule:nonzero;stroke:none;stroke-width:1.33333" />
    <path
       id="path27"
       d="m 156.89773,234.04627 c -1.032,2.46267 -1.13867,4.77733 -0.24,5.17067 0.90133,0.39466 2.46667,-1.28134 3.49867,-3.744 1.032,-2.46267 1.13866,-4.77867 0.23866,-5.172 -0.9,-0.39334 -2.46666,1.28266 -3.49733,3.74533"
       style="fill:#111111;fill-opacity:1;fill-rule:nonzero;stroke:none;stroke-width:1.33333" />
    <path
       id="path28"
       d="m 177.46547,239.0052 c -0.84267,2.53333 -0.77467,4.85067 0.15333,5.17467 0.928,0.32533 2.36134,-1.46534 3.20534,-3.99867 0.84133,-2.53333 0.77333,-4.85067 -0.15467,-5.176 -0.92667,-0.324 -2.36133,1.46667 -3.204,4"
       style="fill:#111111;fill-opacity:1;fill-rule:nonzero;stroke:none;stroke-width:1.33333" />
    <path
       id="path29"
       d="m 172.88027,224.0312 c -0.84267,2.53333 -0.77467,4.85067 0.15333,5.17467 0.928,0.32533 2.36134,-1.46534 3.20534,-3.99867 0.84133,-2.53333 0.77333,-4.85067 -0.15467,-5.176 -0.92667,-0.32267 -2.36133,1.46667 -3.204,4"
       style="fill:#111111;fill-opacity:1;fill-rule:nonzero;stroke:none;stroke-width:1.33333" />
    <path
       id="path30"
       d="m 166.084,260.4264 c -2.35467,-2.11467 -5.456,-3.25067 -8.61067,-3.00933 -0.0493,0.004 -0.0987,0.008 -0.14933,0.012 -4.992,0.40933 -6.52667,-7.184 0.0987,-8.74934 6.62666,-1.564 14.35466,2.024 16.30933,7.38134 1.71067,4.68666 -3.068,8.48133 -7.648,4.36533"
       style="fill:#111111;fill-opacity:1;fill-rule:nonzero;stroke:none;stroke-width:1.33333" />
    <path
       id="path31"
       d="m 0,0 c -0.667,-1.709 -3.94,-2.028 -7.311,-0.712 -3.37,1.316 -5.561,3.768 -4.894,5.477 0.667,1.709 3.941,2.028 7.311,0.712 C -1.524,4.161 0.667,1.709 0,0"
       style="fill:#f04440;fill-opacity:1;fill-rule:nonzero;stroke:none"
       transform="matrix(1.3333333,0,0,-1.3333333,170.89973,262.3652)"
       clip-path="url(#clipPath32)" />
    <path
       id="path33"
       d="m 198.42187,276.79493 c 5.22,-21.84133 -9.44267,-30.85467 -9.44267,-30.85467 l -1.58133,4.56534 -7.02533,20.26533 c -2.45734,14.45333 -11.156,6.88133 -11.156,6.88133 -0.71067,-2.23333 -1.564,0 -1.564,0 v -14.516 c 0,-5.732 -1.42134,-8.11466 -4.12267,-6.62533 -2.70133,1.48933 -1.848,13.25067 -1.848,13.25067 -1.92,-2.90267 -3.484,0.0747 -3.484,0.0747 0,0 -0.568,-1.26533 -1.91867,-1.11733 -1.352,0.14933 -1.42266,1.63867 -1.42266,1.63867 -0.42667,-0.74534 -2.27467,-3.12667 -3.98134,0 -1.70533,3.12666 2.98667,20.09866 10.67867,25.16 1.52267,1.00266 3.67733,1.744 6.19067,2.12266 12.67066,-2.84933 24.03866,-9.64266 30.67733,-20.84533"
       style="fill:#fb8f25;fill-opacity:1;fill-rule:nonzero;stroke:none;stroke-width:1.33333" />
    <path
       id="path34"
       d="m 167.74413,297.64067 c 7.96933,1.20133 19.56933,-1.27467 26.31067,-10.89067 1.86666,-2.664 3.36933,-5.86 4.30933,-9.69333 0.0213,-0.088 0.0373,-0.17333 0.0573,-0.26133 -6.63733,11.20266 -18.00666,17.996 -30.67733,20.84533"
       style="fill:#f07d0c;fill-opacity:1;fill-rule:nonzero;stroke:none;stroke-width:1.33333" />
    <path
       id="path35"
       d="m 182.19013,280.4948 c 0,0 -7.58133,2.536 -14.53733,-2.84267 0,0 2.51333,-21.656 -2.84534,-21.56533 0,0 -4.61066,-1.02667 -3.17466,12.82133 0,0 -2.16,-1.38533 -3.43467,0.928 0,0 -2.30533,-2.65466 -3.31067,0.29734 0,0 -3.27066,-2.99067 -4.36133,0.752 0,0 -4.17733,21.94133 19.35867,27.044 0,0 -19.51334,-4.724 -18.764,-26.52934 0,0 0.18666,-1.30933 1.59066,-1.38 1.40267,-0.0707 2.19867,1.568 2.19867,1.568 0,0 0.468,-2.15333 1.544,-1.896 1.076,0.25734 1.82533,1.75467 1.82533,1.75467 0,0 0.37467,-2.432 1.98934,-2.03467 1.61333,0.39734 1.66,2.26934 1.66,2.26934 0,0 -0.84134,-15.58134 2.71466,-15.02 3.556,0.56133 2.48,22.17866 2.48,22.17866 0,0 8.14134,6.80134 15.06667,1.65467"
       style="fill:#f07d0c;fill-opacity:1;fill-rule:nonzero;stroke:none;stroke-width:1.33333" />
    <path
       id="path36"
       d="m 192.1764,250.1048 c 0,0 -2.78,16.16533 -9.332,30.38933 0,0 9.11733,-14.548 9.332,-30.38933"
       style="fill:#f07d0c;fill-opacity:1;fill-rule:nonzero;stroke:none;stroke-width:1.33333" />
    <path
       id="path37"
       d="m 92.6296,365.75787 c 0,4.696 -5.806667,8.50533 -12.972,8.50533 -7.163999,0 -12.971999,-3.80933 -12.971999,-8.50533 0,-4.69733 5.808,-8.50533 12.971999,-8.50533 7.165333,0 12.972,3.808 12.972,8.50533"
       style="fill:#ea1919;fill-opacity:1;fill-rule:nonzero;stroke:none;stroke-width:1.33333" />
    <path
       id="path38"
       d="m 77.3444,366.08333 v 17.604 L 81.371067,366.67 c 0.145333,-0.616 -0.138667,-1.25867 -0.7,-1.55334 -0.538667,-0.28133 -1.28,-0.52666 -2.125334,-0.41733 -0.689333,0.0893 -1.201333,0.68933 -1.201333,1.384"
       style="fill:#f7c800;fill-opacity:1;fill-rule:nonzero;stroke:none;stroke-width:1.33333" />
    <path
       id="path39"
       d="m 80.9004,381.09893 c 0,1.808 -1.466667,3.27467 -3.276,3.27467 -1.808,0 -3.274667,-1.46667 -3.274667,-3.27467 0,-1.80933 1.466667,-3.276 3.274667,-3.276 1.809333,0 3.276,1.46667 3.276,3.276"
       style="fill:#f7c800;fill-opacity:1;fill-rule:nonzero;stroke:none;stroke-width:1.33333" />
    <path
       id="path40"
       d="m 489.12493,227.38613 c -3.516,-2.62933 -7.78267,-4.73467 -12.916,-5.60667 -10.448,-1.77333 -17.58533,1.752 -21.98267,5.45334 11.624,1.09066 23.296,1.296 34.89867,0.15333"
       style="fill:#ff9539;fill-opacity:1;fill-rule:nonzero;stroke:none;stroke-width:1.33333" />
    <path
       id="path41"
       d="m 489.12493,227.38613 c -11.60267,1.14267 -23.27467,0.93733 -34.89867,-0.15333 -3.89066,3.27466 -5.63733,6.68533 -5.63733,6.68533 0,0 -9.41467,6.50267 -9.04267,9.352 0.372,2.84933 2.10667,1.85867 2.10667,1.85867 0,2.78533 1.48533,2.22933 1.48533,2.22933 0,0 -2.16666,10.96133 0.804,11.08533 2.97467,0.124 5.172,-8.84133 5.172,-8.84133 0,0 -0.116,2.22933 3.46134,1.55733 3.576,-0.67466 3.196,-8.81866 3.196,-8.81866 3.716,-10.528 14.616,-9.228 14.616,-9.228 10.18266,0.88933 17.85733,10.08666 23.27866,20.196 2.008,-5.79467 3.28667,-11.824 3.34667,-17.82934 -2.02933,-2.78266 -4.63733,-5.66133 -7.888,-8.09333"
       style="fill:#fb8f25;fill-opacity:1;fill-rule:nonzero;stroke:none;stroke-width:1.33333" />
    <path
       id="path42"
       d="m 502.9636,246.55213 c 0,0 -1.75467,-5.32 -5.95067,-11.072 -0.06,6.004 -1.33866,12.03333 -3.34666,17.828 7.04533,13.132 10.288,27.80133 10.288,27.80133 1.73333,-21.304 -0.99067,-34.55733 -0.99067,-34.55733"
       style="fill:#f07d0c;fill-opacity:1;fill-rule:nonzero;stroke:none;stroke-width:1.33333" />
    <path
       id="path43"
       d="m 581.00787,244.69667 c 0,0 -4.21067,10.82667 0.99067,23.956 0,0 1.69066,0.21467 3.99733,1.356 1.16,-7.13467 2.96933,-14.14533 5.34133,-21.02667 -2.97333,-1.82266 -6.392,-3.288 -10.32933,-4.28533"
       style="fill:#f07d0c;fill-opacity:1;fill-rule:nonzero;stroke:none;stroke-width:1.33333" />
    <path
       id="path44"
       d="m 595.5104,252.0228 c 2.72133,15.068 7.12133,30.57733 14.436,44.47067 0.56667,-14.088 -1.448,-33.37734 -14.436,-44.47067"
       style="fill:#ff9539;fill-opacity:1;fill-rule:nonzero;stroke:none;stroke-width:1.33333" />
    <path
       id="path45"
       d="m 595.5104,252.0228 c -1.28267,-1.096 -2.66667,-2.11733 -4.17333,-3.04 -2.372,6.88133 -4.18134,13.892 -5.34134,21.02667 6.304,3.11866 17.21334,13.16533 10.86667,44.72 0,0 -6.47467,4.95466 -6.47333,8.85599 0.001,3.90134 2.13866,4.92267 2.13866,4.92267 0,0 -1.67333,3.90267 1.672,3.90267 3.34267,0 6.13067,0.74266 7.06,1.208 0.928,0.46266 3.34267,-0.652 4.644,0 1.30134,0.64933 4.36534,0.64933 5.48134,-0.37334 1.11466,-1.02133 0.372,-15.14133 -3.53067,-19.41466 0,0 1.69067,-7.364 2.092,-17.33733 -7.31467,-13.89334 -11.71467,-29.40267 -14.436,-44.47067"
       style="fill:#fb8f25;fill-opacity:1;fill-rule:nonzero;stroke:none;stroke-width:1.33333" />
    <path
       id="path46"
       d="m 525.41013,376.082 c 0,0 -1.58533,-2.624 -3.11067,-0.976 0,0 -11.16133,-7.25867 -16.468,4.81867 -5.30666,12.07466 18.48134,12.62533 24.336,6.95333 5.856,-5.67333 7.68534,-5.856 7.68534,-5.856 0,0 2.37866,-3.84267 0,-5.48933 -1.76,-1.21867 -6.52934,-19.18667 -7.552,-38.384 -3.29734,0.35066 -6.56934,0.82533 -9.808,1.46 z"
       style="fill:#fb8f25;fill-opacity:1;fill-rule:nonzero;stroke:none;stroke-width:1.33333" />
    <path
       id="path47"
       d="m 530.89973,317.16213 c 0,0 -10.796,-9.51467 -13.724,-3.84267 l 3.31733,25.288 c 3.23867,-0.63333 6.51067,-1.108 9.808,-1.45866 -0.35866,-6.73467 -0.25733,-13.62 0.59867,-19.98667"
       style="fill:#f07d0c;fill-opacity:1;fill-rule:nonzero;stroke:none;stroke-width:1.33333" />
    <path
       id="path48"
       d="m 566.87107,370.54693 c 0,0 1.58533,-2.62267 3.11067,-0.97467 0,0 11.16133,-7.25866 16.46933,4.81867 5.30533,12.07467 -18.48267,12.62533 -24.336,6.95333 -5.856,-5.67333 -7.68667,-5.856 -7.68667,-5.856 0,0 -2.37866,-3.84266 0,-5.48933 1.76134,-1.21867 6.52934,-19.18667 7.552,-38.38533 3.29867,0.352 6.56934,0.82666 9.808,1.46133 z"
       style="fill:#fb8f25;fill-opacity:1;fill-rule:nonzero;stroke:none;stroke-width:1.33333" />
    <path
       id="path49"
       d="m 561.38147,311.62827 c 0,0 10.79733,-9.51467 13.724,-3.84267 l -3.31733,25.288 c -3.23867,-0.63333 -6.50934,-1.108 -9.808,-1.46 0.35866,-6.73333 0.25733,-13.61866 -0.59867,-19.98533"
       style="fill:#f07d0c;fill-opacity:1;fill-rule:nonzero;stroke:none;stroke-width:1.33333" />
    <path
       id="path50"
       d="m 531.59507,178.97987 c 0.14667,0.36133 0.288,0.57333 0.288,0.57333 0,0 -0.0987,-0.20666 -0.288,-0.57333"
       style="fill:#fb8f25;fill-opacity:1;fill-rule:nonzero;stroke:none;stroke-width:1.33333" />
    <path
       id="path51"
       d="m 574.80467,230.72987 c 2.90533,1.788 5.87333,3.38667 8.90133,4.824 -2.47733,-18.61067 -8.136,-36.288 -19.70266,-46.68933 -2.17467,-1.95734 -4.56534,-3.64534 -7.176,-5.04667 -5.66534,15.86133 3.636,38.30667 17.97733,46.912"
       style="fill:#ff9539;fill-opacity:1;fill-rule:nonzero;stroke:none;stroke-width:1.33333" />
    <path
       id="path52"
       d="m 574.80467,230.72987 c -14.34133,-8.60533 -23.64267,-31.05067 -17.97733,-46.912 -2.05334,-1.10133 -4.24134,-2.03067 -6.58534,-2.74 0,0 18.23734,-17.444 7.624,-24.764 -10.61333,-7.31866 -17.2,21.40933 -17.2,21.40933 0,0 -3.29333,-7.32 -7.136,-4.392 -2.872,2.188 -2.37066,4.57867 -1.93466,5.648 0.188,0.368 0.288,0.57334 0.288,0.57334 0,0 -0.14134,-0.212 -0.288,-0.57334 -1.83734,-3.588 -12.14134,-22.66933 -20.93734,-17.35866 -9.69866,5.856 13.356,23.23866 13.356,23.23866 0,0 -5.79066,4.18934 -11.716,14.936 -9.52399,17.272 -19.39866,51.488 -6.14399,112.48933 15.31333,3.32667 31.50799,3.196 47.70399,-0.40266 13.05467,-2.90134 23.24534,-11.124 30.22667,-21.77867 1.30933,-14.28133 2.23333,-34.93333 -0.37867,-54.54933 -3.028,-1.43733 -5.996,-3.036 -8.90133,-4.824"
       style="fill:#fb8f25;fill-opacity:1;fill-rule:nonzero;stroke:none;stroke-width:1.33333" />
    <path
       id="path53"
       d="m 553.85813,311.88147 c -16.196,3.59867 -32.39067,3.72933 -47.704,0.40267 0.43867,2.02 0.90133,4.06933 1.39333,6.14933 0,0 10.61334,2.196 38.608,0 27.996,-2.19467 35.68,-10.064 35.68,-10.064 0,0 1.23734,-7.232 2.24934,-18.26533 -6.98134,10.65466 -17.172,18.876 -30.22667,21.77733"
       style="fill:#f07d0c;fill-opacity:1;fill-rule:nonzero;stroke:none;stroke-width:1.33333" />
    <path
       id="path54"
       d="m 539.49093,214.35227 c 0.0907,2.29067 0.848,4.132 1.69067,4.112 0.84266,-0.02 1.45333,-1.89333 1.364,-4.184 -0.0893,-2.28933 -0.848,-4.13067 -1.692,-4.112 -0.84134,0.0213 -1.452,1.89333 -1.36267,4.184"
       style="fill:#111111;fill-opacity:1;fill-rule:nonzero;stroke:none;stroke-width:1.33333" />
    <path
       id="path55"
       d="m 527.3828,230.27413 c 0.0893,2.29067 0.848,4.132 1.69067,4.112 0.84266,-0.02 1.45333,-1.89333 1.364,-4.184 -0.0907,-2.28933 -0.848,-4.132 -1.692,-4.112 -0.84134,0.02 -1.452,1.89333 -1.36267,4.184"
       style="fill:#111111;fill-opacity:1;fill-rule:nonzero;stroke:none;stroke-width:1.33333" />
    <path
       id="path56"
       d="m 553.74613,226.09053 c -0.84267,0.02 -1.45333,1.89333 -1.36267,4.184 0.0893,2.28933 0.84667,4.132 1.68934,4.112 0.844,-0.02 1.45466,-1.89333 1.364,-4.184 -0.0907,-2.29067 -0.84667,-4.132 -1.69067,-4.112"
       style="fill:#111111;fill-opacity:1;fill-rule:nonzero;stroke:none;stroke-width:1.33333" />
    <path
       id="path57"
       d="m 530.89973,246.37827 c 0,0 9.77733,-6.748 23.01067,-1.44533 0,0 -12.54,-7.71334 -23.01067,1.44533"
       style="fill:#d36300;fill-opacity:1;fill-rule:nonzero;stroke:none;stroke-width:1.33333" />
    <path
       id="path58"
       d="m 528.91013,244.6504 c 0,0 3.036,0.268 2.82267,4.232 0,0 -0.504,-2.732 -2.82267,-4.232"
       style="fill:#d36300;fill-opacity:1;fill-rule:nonzero;stroke:none;stroke-width:1.33333" />
    <path
       id="path59"
       d="m 553.37493,247.82493 c 0,0 0.50267,-2.732 2.82267,-4.232 0,0 -3.03734,0.268 -2.82267,4.232"
       style="fill:#d36300;fill-opacity:1;fill-rule:nonzero;stroke:none;stroke-width:1.33333" />
    <path
       id="path60"
       d="m 538,247.82493 c 0,0 4.28667,-1.7 9.108,0 0,0 -4.608,-3.09333 -9.108,0"
       style="fill:#d36300;fill-opacity:1;fill-rule:nonzero;stroke:none;stroke-width:1.33333" />
    <path
       id="path61"
       d="m 510.6576,161.62107 c 0,0 9.376,-7.524 21.22533,17.932 0,0 -9.46266,-17.76667 -21.22533,-17.932"
       style="fill:#ff9d50;fill-opacity:1;fill-rule:nonzero;stroke:none;stroke-width:1.33333" />
    <path
       id="path62"
       d="m 559.8932,167.8984 c 2.472,-4.50667 1.75867,-14.15733 -6.35467,-12.69467 -8.112,1.464 -12.87333,22.51867 -12.87333,22.51867 -3.30667,-6.03067 -5.61067,-6.26267 -8.09733,-3.52267 -2.48667,2.73867 -0.68534,5.35334 -0.68534,5.35334 -0.0373,-3.43867 2.52934,-4.43734 2.52934,-4.43734 4.99733,-0.43866 6.83066,8.43734 6.83066,8.43734 0,0 5.30267,-24.428 12.45467,-26.116 7.152,-1.68667 6.196,10.46133 6.196,10.46133"
       style="fill:#ff9d50;fill-opacity:1;fill-rule:nonzero;stroke:none;stroke-width:1.33333" />
  </g>
</svg>
