<svg version="1.2" xmlns="http://www.w3.org/2000/svg" viewBox="11.000000000000012 88.99999999999997 469.0000000000001 308" width="470" height="309">
	<title>43463064_9030094</title>
	<style>
		.s0 { fill: #f272a1;stroke: #3b1506;stroke-linecap: round;stroke-linejoin: round } 
		.s1 { fill: #507346;stroke: #3b1506;stroke-linecap: round;stroke-linejoin: round } 
		.s2 { fill: #b82a2a;stroke: #3b1506;stroke-linecap: round;stroke-linejoin: round } 
		.s3 { fill: #f23838 } 
		.s4 { fill: #b58e77;stroke: #3b1506;stroke-linecap: round;stroke-linejoin: round } 
		.s5 { fill: #f2cfbb } 
		.s6 { fill: #cf3030;stroke: #3b1506;stroke-linecap: round;stroke-linejoin: round } 
		.s7 { fill: #8c2020 } 
		.s8 { fill: #bababa;stroke: #3b1506;stroke-linecap: round;stroke-linejoin: round } 
		.s9 { fill: #f7f7f7 } 
		.s10 { fill: #9c2323;stroke: #3b1506;stroke-linecap: round;stroke-linejoin: round } 
		.s11 { fill: #6e1919 } 
		.s12 { fill: #3b1506;stroke: #3b1506;stroke-linecap: round;stroke-linejoin: round } 
		.s13 { fill: #ffffff;stroke: #3b1506;stroke-linecap: round;stroke-linejoin: round } 
		.s14 { fill: none;stroke: #3b1506;stroke-linecap: round;stroke-linejoin: round } 
		.s15 { fill: #f2cfbb;stroke: #3b1506;stroke-linecap: round;stroke-linejoin: round } 
		.s16 { fill: #3b1506 } 
		.s17 { fill: #b58e77 } 
		.s18 { fill: #bd2c2c;stroke: #3b1506;stroke-linecap: round;stroke-linejoin: round } 
		.s19 { fill: #ab2828;stroke: #3b1506;stroke-linecap: round;stroke-linejoin: round } 
		.s20 { fill: #f23838;stroke: #3b1506;stroke-linecap: round;stroke-linejoin: round } 
		.s21 { fill: #b9bd5d;stroke: #3b1506;stroke-linecap: round;stroke-linejoin: round } 
		.s22 { fill: #eef277 } 
		.s23 { fill: #eef277;stroke: #3b1506;stroke-linecap: round;stroke-linejoin: round } 
		.s24 { fill: #c9cc64 } 
		.s25 { fill: #646632;stroke: #3b1506;stroke-linecap: round;stroke-linejoin: round } 
	</style>
	<g id="OBJECTS">
		<g id="&lt;Group&gt;">
			<path id="&lt;Path&gt;" class="s0" d="m473.2 370.9c0 12.8-102.2 23.2-228.4 23.2-126.1 0-228.3-10.4-228.3-23.2 0-12.8 102.2-23.2 228.3-23.2 126.2 0 228.4 10.4 228.4 23.2z"/>
			<path id="&lt;Path&gt;" class="s1" d="m244.8 386.6c-45 0-87.4-1.8-119.2-5-47.6-4.9-48.1-10.5-48.1-10.7 0-0.2 0.5-5.8 48.1-10.6 31.8-3.3 74.2-5.1 119.2-5.1 45.1 0 87.4 1.8 119.3 5.1 47.6 4.8 48.1 10.4 48.1 10.6 0 0.2-0.5 5.8-48.1 10.7-31.9 3.2-74.2 5-119.3 5z"/>
		</g>
		<g id="&lt;Group&gt;">
			<g id="&lt;Group&gt;">
				<path id="&lt;Path&gt;" class="s2" d="m358.9 134.9c-0.6 5.2 1 10.6 4.2 14.7 3.3 4.2 8.2 7 13.4 7.7 3.9 0.6 8.4 0.1 11.5 2.7 20.8 17.3 15.5 51.1 19.7 77.7 1.1 7.3 3.3 15.6 10 18.6 5.4 2.4 12 0.3 16.3-3.8 4.3-4 6.7-9.7 8.6-15.3 8.3-23.9 9.8-50 4.3-74.7-1.9-8.3-5.4-17.4-13.3-20.3-6.2-2.2-14.4-1.7-20.4 1-2.1 1-6.7-0.2-8.7-1.3-2-1.1-3.7-2.7-5.4-4.2-4.9-4.2-10.6-7.5-16.6-9.6-4-1.4-8.2-2.4-12.3-1.7-4.1 0.6-10.9 4.3-11.3 8.5z"/>
				<path id="&lt;Path&gt;" class="s3" d="m422.6 248.3q-2 0-3.7-0.8c-5.5-2.4-7.3-9.6-8.3-15.6-1.1-6.8-1.5-13.9-2-21.5-1.2-20.7-2.5-42.1-18.6-55.1-3.1-2.5-6.9-2.7-10.2-2.9q-1.6-0.1-2.9-0.3c-4.5-0.6-8.6-2.9-11.4-6.3-2.8-3.4-4.1-7.9-3.6-12.2 0.2-2 5-5 8.8-5.6q1-0.1 2.2-0.1c2.5 0 5.3 0.5 8.6 1.6 5.7 2 11 4.9 15.7 8.7q0.5 0.5 1 0.9c1.4 1.2 3 2.5 4.8 3.5 1.9 1 5.2 2 8.1 2q2 0 3.3-0.6c3-1.3 6.7-2.1 10.4-2.1 2.8 0 5.5 0.5 7.7 1.2 5.4 1.9 9.2 7.6 11.5 17.4 5.4 23.4 3.9 47.7-4.2 70.4-1.8 4.9-3.9 10-7.9 13.6-2.6 2.3-6.1 3.8-9.3 3.8z"/>
				<path id="&lt;Path&gt;" class="s4" d="m219.6 220.4c2.5 35.8 20.6 55.6 49 64.1 11.7 3.5 25.2 5.1 40.1 5.1 12.4 0 24.8-0.9 36.5-2.9 36.1-6.4 65.1-24.1 65.1-62.4 0-61.1-24.6-90.5-54-103.1-15.5-6.7-32.4-8.7-47.6-8.2q-9.5 0.3-17.8 1.6c-58.1 9.5-74.8 55.4-71.3 105.8z"/>
				<path id="&lt;Path&gt;" class="s5" d="m309.7 284.6c-15 0-28.2-1.7-39.3-5-29.2-8.7-44.5-28.8-46.8-61.4-1.9-27 2.2-49.4 12.1-66.5 11.4-19.7 30.5-31.9 56.7-36.1 5.5-0.9 11.3-1.4 17.4-1.6q2.2-0.1 4.3-0.1c15.6 0 29.7 2.7 42 8 15.7 6.7 28 17.6 36.7 32.2 10.3 17.4 15.5 40.3 15.5 68.2 0 32.1-21.1 52.1-62.6 59.4-10.9 1.9-23 2.9-36 2.9z"/>
				<path id="&lt;Path&gt;" class="s6" d="m219.6 220.4c2.5 35.8 20.6 55.6 49 64.1 5.3-1.2 10.6-3.1 15.6-6 14.3-8.2 25-22 31.3-37.3 6.3-15.3 8.4-32 8.2-48.6-0.1-16.2-2.6-32.7-9.1-47.6q-0.1-0.2-0.2-0.3c-9.9-22.2-37.2-30.6-57.8-17.8-30.6 19-39.7 54.9-37 93.5z"/>
				<path id="&lt;Path&gt;" class="s3" d="m268.6 280.6c-29.9-8.9-45.6-29.2-48-62-2.1-30 2.5-70.2 36.5-91 6.2-3.7 13.2-5.7 20.5-5.7 15.5 0 29.6 8.9 35.9 22.8l0.2 0.3c5.8 13 8.8 28.6 9 46.4 0.2 18-2.5 33.9-8.1 47.3-6.7 15.9-17.6 28.7-30.9 36.2-4.6 2.6-9.6 4.5-15.1 5.7z"/>
				<path id="&lt;Path&gt;" class="s6" d="m387.9 270.2c13.8-10.2 22.4-25 22.4-45.9 0-61.1-24.6-90.5-54-103.1-5.4 5.6-8.7 13.5-9.8 21.4-1.6 10.9 0.2 22 1.6 33 1.7 14.3 1.6 28.8 2.9 43.3 2.3 27 20.1 63.7 36.9 51.3z"/>
				<path id="&lt;Path&gt;" class="s3" d="m380.9 268c-13.2 0-26.9-28.4-28.9-51.7-0.5-5.9-0.8-11.8-1.1-17.6-0.4-8.1-0.8-16.6-1.8-24.8q-0.3-1.9-0.5-3.7c-1.3-9.4-2.5-19-1.1-28.3 1.1-7.9 4.4-14.9 9.1-19.9 15.7 6.7 28.1 17.5 36.9 32 10.5 17.3 15.8 40.1 15.8 67.6 0 18.8-7.4 33.6-22 44.1-2.1 1.5-4.2 2.3-6.4 2.3z"/>
				<g id="&lt;Group&gt;">
					<g id="&lt;Group&gt;">
						<path id="&lt;Path&gt;" class="s7" d="m290.1 239.9c-17.7 0-32.1-16.1-32.1-36 0-19.9 14.4-36 32.1-36 17.6 0 32 16.1 32 36 0 19.9-14.4 36-32 36z"/>
						<path id="&lt;Path&gt;" class="s8" d="m260.7 201.1c0 18.3 13 33.1 29.1 33.1 16 0 29.1-14.8 29.1-33.1 0-18.2-13.1-33-29.1-33-16.1 0-29.1 14.8-29.1 33z"/>
						<path id="&lt;Path&gt;" class="s9" d="m290.5 231.6c-15 0-27.1-13.9-27.1-31 0-17.1 12.1-31 27.1-31 14.9 0 27 13.9 27 31 0 17.1-12.1 31-27 31z"/>
					</g>
					<g id="&lt;Group&gt;">
						<path id="&lt;Path&gt;" class="s10" d="m286.6 225.5c11.7 0 21.3-11 21.3-24.4 0-13.4-9.6-24.3-21.3-24.3-11.7 0-21.2 10.9-21.2 24.3 0 13.4 9.5 24.4 21.2 24.4z"/>
						<path id="&lt;Path&gt;" class="s11" d="m286.5 222c-10.6 0-19.2-10-19.2-22.3 0-12.3 8.6-22.4 19.2-22.4 10.6 0 19.2 10.1 19.2 22.4 0 12.3-8.6 22.3-19.2 22.3z"/>
						<path id="&lt;Path&gt;" class="s12" d="m286.6 219.9c8.9 0 16.2-8.4 16.2-18.8 0-10.3-7.3-18.7-16.2-18.7-8.9 0-16.1 8.4-16.1 18.7 0 10.4 7.2 18.8 16.1 18.8z"/>
						<path id="&lt;Path&gt;" class="s13" d="m295.8 206.5c4.6-1.2 7.2-6.4 5.8-11.6-1.3-5.3-6-8.6-10.6-7.5-4.5 1.2-7.1 6.4-5.8 11.6 1.4 5.3 6.1 8.6 10.6 7.5z"/>
						<path id="&lt;Path&gt;" class="s13" d="m285.5 218.8c2.4-1 3.4-4.2 2.2-7.1-1.2-2.8-4.2-4.3-6.7-3.3-2.4 1.1-3.4 4.2-2.2 7.1 1.2 2.9 4.2 4.4 6.7 3.3z"/>
					</g>
				</g>
				<g id="&lt;Group&gt;">
					<path id="&lt;Path&gt;" class="s7" d="m375.6 237.1c-9.8 0-19.7-13.3-23-30.9-3.7-19.3 1.7-36.1 12.2-38.3q1-0.2 2.2-0.2c9.7 0 19.6 13.2 22.9 30.8 1.7 9 1.5 17.9-0.6 25-2.2 7.5-6.3 12.3-11.5 13.3q-1.1 0.3-2.2 0.3 0 0 0 0z"/>
					<path id="&lt;Path&gt;" class="s8" d="m354.3 203.2c3.4 17.1 13.6 29.5 22.8 27.7 9.3-1.8 14-17.2 10.6-34.3-3.4-17.1-13.6-29.5-22.8-27.7-9.2 1.8-14 17.2-10.6 34.3z"/>
					<path id="&lt;Path&gt;" class="s9" d="m375.8 228.3c-7.7 0-16.1-11.5-19-26.3-3.1-15.7 1-30.3 9-31.9q0.7-0.1 1.4-0.1c7.8 0 16.2 11.5 19.1 26.2 1.5 8 1.4 15.8-0.5 21.9-1.8 5.8-4.8 9.3-8.5 10.1q-0.7 0.1-1.5 0.1 0 0 0 0z"/>
					<path id="&lt;Path&gt;" class="s10" d="m370.5 224.2q0.6 0 1.2-0.1c3-0.6 5.4-3.4 6.8-8.1 1.6-4.9 1.7-11.2 0.4-17.6-2.3-11.9-9.1-21.2-15.3-21.2q-0.6 0-1.2 0.1c-3 0.6-5.4 3.5-6.8 8.1-1.6 5-1.7 11.2-0.4 17.7 2.3 11.8 9.1 21.1 15.3 21.1z"/>
					<path id="&lt;Path&gt;" class="s11" d="m369.5 221.3c-4.6 0-11.1-7.9-13.4-19.5-1.2-6.1-1.1-12.1 0.3-16.7 1.2-3.9 3.2-6.3 5.4-6.7q0.3-0.1 0.7-0.1c4.6 0 11.1 7.8 13.4 19.5 1.2 6.1 1.1 12.1-0.3 16.7-1.2 3.8-3.2 6.3-5.4 6.7q-0.3 0.1-0.7 0.1z"/>
					<path id="&lt;Path&gt;" class="s12" d="m369.2 219.1q0.3 0 0.7-0.1c1.8-0.4 3.5-2.5 4.5-5.7 1.2-4 1.3-9.1 0.3-14.3-2-9.9-7.5-16.6-11.4-16.6q-0.3 0-0.7 0c-1.8 0.4-3.5 2.5-4.5 5.8-1.2 3.9-1.3 9-0.3 14.2 2 10 7.5 16.7 11.4 16.7z"/>
					<path id="&lt;Path&gt;" class="s13" d="m372.4 206.4q0.1 0 0.2-0.1c0.6-0.2 1.4-1.3 1.7-3.6 0.5-2.9 0-6.4-1.3-9.9-2.5-6.7-6.9-10.5-8.9-10.2q-0.1 0-0.2 0c-0.6 0.3-1.4 1.3-1.7 3.7-0.5 2.8 0 6.4 1.3 9.9 2.5 6.7 6.9 10.5 8.9 10.2z"/>
					<path id="&lt;Path&gt;" class="s13" d="m365.9 216.5q0 0 0.1 0c0.3-0.1 0.7-0.7 0.9-1.9 0.2-1.5 0-3.3-0.7-5.2-1.3-3.4-3.6-5.4-4.6-5.2q-0.1 0-0.1 0c-0.3 0.1-0.7 0.7-0.9 1.9-0.2 1.5 0 3.3 0.7 5.1 1.3 3.5 3.6 5.5 4.6 5.3z"/>
				</g>
				<path id="&lt;Path&gt;" class="s3" d="m257.4 213.8l59.7-35.6c-4.2-5.6-9.1-10.6-15.3-13.8-6.2-3.1-13.5-4.4-20.2-2.7-5.8 1.6-10.8 5.2-14.9 9.5-4.5 4.7-8.2 10.3-10 16.6-2.4 7.8-0.9 17.9 0.7 26z"/>
				<path id="&lt;Path&gt;" class="s14" d="m258.5 213l57-33.6"/>
				<path id="&lt;Path&gt;" class="s3" d="m351.3 188.9l43.3 14.6c1.2-6.1-0.5-12-2.7-17.8-1.9-4.8-4.2-9.6-7.6-13.7-3.3-4-7.7-7.3-12.8-8.5-5.1-1.2-10.9-0.2-14.7 3.4-2.9 2.6-4.5 6.3-5.3 10.1-0.7 3.8-0.3 8-0.2 11.9z"/>
				<path id="&lt;Path&gt;" class="s14" d="m395.4 204.5l-43.1-15"/>
				<path id="&lt;Path&gt;" class="s12" d="m278.2 194.9c13.6-5.2 25-16 31.1-29.2l-4.1-12.2c-5.5 16-14.1 30.4-27 41.4z"/>
				<path id="&lt;Path&gt;" class="s12" d="m388.4 195.9c-13.6-5.3-25-16-31.1-29.2l4.1-12.2c5.5 15.9 14.2 30.4 27 41.4z"/>
				<path id="&lt;Path&gt;" class="s15" d="m293.9 116.2c-1.8-4.2-1.6-9.2 0.4-13.3 2-4 5.9-7.2 10.3-8.3 1.6-0.4 3.5-0.5 4.6 0.7 1.1 1.3 0.8 3.2 0.2 4.8-1 2.7-2.7 5.2-4.9 7.2 7.9-4.6 17.8-7.4 26.8-5.9 2.8 0.5 6.1 2 6.4 4.9 0.2 2-1.2 3.9-3 4.9-1.8 1-3.9 1.2-6 1.4 6.6 2.5 11.5 9 12.1 16.1 0.2 2.6-0.4 5.7-2.6 7.1-2.5 1.7-6 0.6-8.1-1.4-2.2-2.1-3.5-4.8-5.1-7.3-3.5-5-8.8-8.7-14.6-10.2"/>
				<g id="&lt;Group&gt;">
					<path id="&lt;Path&gt;" class="s15" d="m327.1 229.3c8.3-2.9 17.2-5.1 26-4.1 8.8 1 17.5 5.9 21.2 14 4.1 9.2 0.7 20.2-4.6 29"/>
					<path id="&lt;Path&gt;" class="s12" d="m366.5 237.9c-0.4-3.1-2.4-5.9-6.2-7.3-6.4-2.4-13.7-2.5-20.2-0.4-2.6 0.9-5.4 2.3-6.4 4.9-0.8 2.1-0.4 4.5 0.8 6.4 1.1 1.9 2.9 3.3 4.7 4.5 8 5.3 17 7.5 24.2 0 2.3-2.5 3.4-5.4 3.1-8.1z"/>
					<path id="&lt;Path&gt;" class="s13" d="m352.7 237.6c3.6 0 6.5-1.7 6.5-3.8 0-2.1-2.9-3.8-6.5-3.9-3.6 0-6.5 1.7-6.5 3.8 0 2.1 2.9 3.9 6.5 3.9z"/>
					<path id="&lt;Path&gt;" class="s14" d="m369.4 268.3c-21-4.2-43.3-1.4-62.7 7.8"/>
					<path id="&lt;Path&gt;" class="s14" d="m359.7 269.5c1 2.8-0.2 6-2.4 8.1-2.2 2-5.1 3-8 3.7-5.9 1.4-12.1 1.7-18.2 0.9"/>
					<path id="&lt;Path&gt;" class="s14" d="m351.5 266.1c1.8-4.8 2.5-10 2.1-15.1"/>
					<g id="&lt;Group&gt;">
						<path id="&lt;Path&gt;" class="s16" d="m334 247.7c0 1-0.8 1.8-1.8 1.8-1 0-1.8-0.8-1.8-1.8 0-1 0.8-1.8 1.8-1.8 1 0 1.8 0.8 1.8 1.8z"/>
						<path id="&lt;Path&gt;" class="s16" d="m333.8 258.5c0 1-0.9 1.9-1.9 1.9-1.1 0-1.9-0.9-1.9-1.9 0-1 0.8-1.9 1.9-1.9 1 0 1.9 0.9 1.9 1.9z"/>
						<path id="&lt;Path&gt;" class="s16" d="m327.2 251.7c0 0.6-0.5 1.2-1.2 1.2-0.6 0-1.1-0.6-1.1-1.2 0-0.7 0.5-1.2 1.1-1.2 0.7 0 1.2 0.5 1.2 1.2z"/>
					</g>
					<g id="&lt;Group&gt;">
						<path id="&lt;Path&gt;" class="s16" d="m367.7 248.5c0 0.7-0.6 1.3-1.3 1.3-0.7 0-1.3-0.6-1.3-1.3 0-0.7 0.6-1.3 1.3-1.3 0.7 0 1.3 0.6 1.3 1.3z"/>
						<path id="&lt;Path&gt;" class="s16" d="m368.1 257.6c0 0.7-0.6 1.3-1.3 1.3-0.7 0-1.3-0.6-1.3-1.3 0-0.7 0.6-1.3 1.3-1.3 0.7 0 1.3 0.6 1.3 1.3z"/>
						<path id="&lt;Path&gt;" class="s16" d="m372 252.8c0 0.3-0.2 0.6-0.6 0.6-0.3 0-0.6-0.3-0.6-0.6 0-0.4 0.3-0.6 0.6-0.6 0.4 0 0.6 0.2 0.6 0.6z"/>
					</g>
				</g>
			</g>
			<g id="&lt;Group&gt;">
				<path id="&lt;Path&gt;" class="s4" d="m184 336.9c-5.5-11-11.7-22.6-22.4-28.6-15.1-8.3-35.6-1.8-45.8 12.1-10.2 13.9-11.1 33.1-5.5 49.4 1.2 3.4 5.1 5.6 8.6 5.1h64.6"/>
				<path id="&lt;Path&gt;" class="s15" d="m222.7 202.9c-7.9-2.8-18.9-3.1-33.2 2.8-14.2 6-26.2 16.5-36.1 28.3-29.3 34.6-43.3 81.7-37.7 126.7 0.8 6.8 12.9 14.1 19.7 14.1q23.1 0 46.2 0 17.1 0 34.3 0c8.2 0 20.3 0.8 26.1-6.7 5.5-7.2 2-21.9 0.4-30-4.2-21.1 1.1-41.8 6.5-62.7 0 0-3.3-5.9-6.2-7.9-2.9-2-3.6-2.5-3.6-2.5"/>
				<path id="&lt;Path&gt;" class="s15" d="m135 341.8c-11-1.5-22.2-2.8-33.3-1.6-11.1 1.1-22.2 4.9-30.4 12.4-1.5 1.4-3 3-3.3 5.1-0.3 2 1.2 4.4 3.3 4.3-11.5 1.1-22.6 8.7-30.1 17.4-1 1.1-1.8 2.9-0.6 3.7 15.4 11.2 35.2 8.9 53.6 3.8 18.4-5 36.6-12.7 55.7-12"/>
				<path id="&lt;Path&gt;" class="s15" d="m238.9 264.7c10.1 7.6 16 20.6 14.9 33.2-1.4 15.9 3.5 31.5 8.2 46.8 1.8 5.8-4.1 12.5-9.8 14.7-5.7 2.3-12.7 0.9-17-3.4-10.7-10.5-11.6-26.9-17.8-40.5"/>
				<path id="&lt;Path&gt;" class="s17" d="m218.2 314.1c8.9 2.3 19-1.1 24.6-8.4 6.2-8 6.5-19.1 5.6-29.2 2.6 3.8 4 9.5 4.3 14.1 0.2 4.6-0.2 9.2-0.2 13.8 0 9.1 1.8 18.1 5.2 26.4-3.8-2-8.3-3.5-12.4-4.7-4.2-1.2-8.7-1.4-12.8 0.2-4 1.6-7.3 5.3-7.6 9.6-1.6-7.2-3.3-15.3-6.7-21.8z"/>
				<path id="&lt;Path&gt;" class="s18" d="m261.5 374.7h35.2c2.9-5.5 2.1-12.5-1.3-17.6-3.4-5.2-9-8.6-15-10.1-6-1.4-12.3-1-18.4 0.4-1.2 8.2-1.4 17-0.5 25.3 0.1 1 0 1 0 2z"/>
				<path id="&lt;Path&gt;" class="s3" d="m266 370.3c-0.7-6.9-0.6-14.4 0.3-21.8q4-0.7 7.7-0.7c2.6 0 5 0.3 7.3 0.8 5.6 1.4 10.4 4.6 13.2 8.8 2.5 3.9 3.2 8.9 1.8 12.9z"/>
				<path id="&lt;Path&gt;" class="s15" d="m207.3 336.9c5.5-11 11.7-22.6 22.4-28.6 15.1-8.3 35.6-1.8 45.8 12.1 10.2 13.9 11.1 33.1 5.5 49.4-1.2 3.4-5.1 5.6-8.6 5.1h-64.6"/>
				<path id="&lt;Path&gt;" class="s19" d="m117.5 374.8q-0.1 1.5-0.5 3.1-0.3 1.2-0.7 2.4c-7.4 2.2-14.7 4.6-22.1 6.6-18.4 5-38.2 7.4-53.6-3.8-1.2-0.8-0.4-2.6 0.6-3.7q1.3-1.6 2.8-3.1c7.4-7.3 17.2-13.3 27.3-14.3-2.1 0.1-3.6-2.3-3.3-4.3q0.1-0.6 0.3-1.1 3.5-1.1 7.1-1.5c-1.7 0.1-3.1-1.5-3.3-3.2 8.1-7.1 18.9-10.6 29.6-11.7q1.2-0.2 2.5-0.2c1.5 2.3 2.3 5 2.5 7.8 0.3 4.3-1.2 9.2-2.5 13.3 4-1.8 9 0.4 11.3 4.1 1.8 2.8 2.3 6.2 2 9.5z"/>
				<path id="&lt;Path&gt;" class="s3" d="m116.5 374.9c-6.1 1.8-12.1 3.7-18.2 5.4-17.8 4.9-37.1 7.2-52.1-3.7q-0.1-0.1-0.2-0.2c7-7.1 16.5-12.9 26.1-13.9-1.9 0.2-3.4-2.1-3.1-4.1q0.1-0.5 0.3-1 3.3-1.1 6.8-1.4c-1.7 0.1-2.9-1.5-3.2-3.1 7.8-6.8 18.1-10.3 28.4-11.3q1.2-0.1 2.4-0.2c1.4 2.2 2.2 4.9 2.4 7.5 0.2 4.1-1.2 8.9-2.4 12.8 3.8-1.7 8.6 0.4 10.9 4 1.7 2.7 2.2 5.9 1.9 9.2z"/>
				<path id="&lt;Path&gt;" class="s20" d="m115.2 325.2c6.5 4.1 14.9 5 21.9 1.9 6.3-2.8 12.3-8.4 18.9-6.6 6.7 1.8 9.2 10.2 15 13.9 4.1 2.6 9.5 2.5 14 0.6 4.5-1.9 8.2-5.3 11.4-9 7.3-8.5 12.2-19 14.2-30 0.5-2.9 0.8-6.2-1.1-8.4-3.4-4.2-10-1.6-15 0.4-4.6 1.8-9.5 2.8-14.3 1.9-4.8-0.9-9.4-3.8-11.5-8.2-2.3-5-1.3-11.2-4.5-15.7-4.5-6.3-14.1-5.4-21.3-2.7-3.8 1.5-8.1 3.7-12.5 6.5-8.1 17.4-13.3 36.3-15.2 55.4z"/>
				<path id="&lt;Path&gt;" class="s21" d="m178.5 209.4c25.8 10.8 47.6 30.8 60.6 55.6 4.6-24.6-3.1-50.3-20.2-68.6-14.2-2.7-30.1 2.7-40.4 13z"/>
				<path id="&lt;Path&gt;" class="s22" d="m238.6 254.9c-12.8-20.5-31.4-37-53.3-47.2 7.7-6.2 17.6-9.8 27.4-9.8q3.1 0 6 0.5c14.1 15.4 21.2 36 19.9 56.5z"/>
				<path id="&lt;Path&gt;" class="s17" d="m268.8 374.1l-118.9-0.3 59.9-9.2c8.2-5.6 16.5-11.6 25.9-14.8 9.4-3.2 20.2-3.7 29 0.9 4 2.1 7.7 5.3 9.1 9.6 1.5 4.3-1.2 11.2-5 13.8z"/>
			</g>
			<g id="&lt;Group&gt;">
				<path id="&lt;Path&gt;" class="s18" d="m249 133.9c-11.2-3.1-24-6-33.5 0.4-5.5 3.7-8.8 9.9-13.5 14.5-7.4 7.2-18.6 10.3-28.7 8-10.1 4.5-12 19.6-12.3 30.7-0.8 28 5.4 56.2 17.9 81.3 3.2 6.5 10.7 9.6 17.5 7.1 6.6-2.4 12.9-6.6 17-11.3 6.8-7.8 10.8-17.6 14-27.4 8.2-24.8 12-51 11.3-77.1"/>
				<path id="&lt;Path&gt;" class="s3" d="m191.2 261.2c-4.6 0-8.7-2.3-10.8-6.1-12.3-22.3-18.3-47.2-17.5-72 0.5-14.2 3.9-22.6 10.5-25.7q3.1 0.6 6.5 0.6c8.6 0 17-3 23-8.3 2-1.7 3.6-3.6 5.3-5.5 2.4-2.8 4.8-5.4 7.8-7.3 3.5-2.1 8.4-4.3 13.5-4.3 6.1 0 14.1 0.5 20.2 2.1 3.4 0.8 3.9 7.1 4.1 10.3 0.9 15.5-13.7 14.8-13.7 14.8l-2-0.2c0.8 23.3-5.1 45.3-13.2 67.4-2.9 7.9-6.7 16.9-13.5 23.9-3.9 4-9.9 7.6-16.1 9.6q-2 0.7-4.1 0.7z"/>
			</g>
		</g>
		<g id="&lt;Group&gt;">
			<path id="&lt;Path&gt;" class="s23" d="m447.3 366.3c2.6-1.6-16.3-37.3-20.3-38.4 16.7-9.5-113.3-9.5-96.5 0.1-3.9 1-22.2 36.7-19.5 38.3-24.6 13.6 161 13.6 136.3 0z"/>
			<path id="&lt;Compound Path&gt;" class="s24" d="m380.4 373.5c-35.5 0-56.4-2.7-62.5-5l3.7-2.2-3-1.8c1.4-6.6 13.3-30.7 16.8-33.7l6.4-1.8-3.8-2.3c5.8-1.4 19.9-2.9 42-2.9 22.2 0 36.3 1.5 42.1 2.9l-3.8 2.3 6.5 1.8c3.4 2.9 15.8 27 17.4 33.7l-3 1.8 3.8 2.2c-6.1 2.3-27 5-62.5 5q-0.1 0-0.1 0z"/>
			<path id="&lt;Path&gt;" class="s25" d="m380.5 324.1c-19.6 0-36.4 1.4-43.2 3.3 7.5 1.7 23.4 2.8 41.8 2.8 19.6 0 36.4-1.3 43.2-3.2-7.5-1.7-23.4-2.9-41.8-2.9z"/>
		</g>
	</g>
</svg>